<?xml version="1.0" encoding="UTF-8" standalone="no"?>
<!-- Created with Inkscape (http://www.inkscape.org/) -->

<svg
   width="820"
   height="320"
   viewBox="0 0 820 320"
   version="1.1"
   id="svg1"
   xmlns="http://www.w3.org/2000/svg"
   xmlns:svg="http://www.w3.org/2000/svg">
  <defs
     id="defs1">
    <clipPath
       clipPathUnits="userSpaceOnUse"
       id="clipPath10">
      <path
         d="M 0,1651.894 H 1920 V 0 H 0 Z"
         transform="translate(-131.1837,-1547.2571)"
         id="path10" />
    </clipPath>
  </defs>
  <g
     id="layer1">
    <g
       id="g210"
       transform="matrix(2.4868033,0,0,2.4868033,-266.30001,-106.48503)">
      <path
         id="path9"
         d="m 0,0 c -2.266,-1.765 -5.605,-2.647 -10.016,-2.647 -1.124,0 -2.377,0.131 -3.761,0.391 -1.384,0.261 -2.727,0.642 -4.031,1.143 -1.304,0.501 -2.376,1.092 -3.218,1.775 -0.842,0.681 -1.264,1.463 -1.264,2.346 0,0.401 0.09,0.852 0.27,1.354 0.182,0.501 0.431,1.053 0.753,1.654 0.32,0.602 0.722,1.243 1.203,1.925 0.28,0.401 0.611,0.702 0.993,0.903 0.38,0.2 0.831,0.301 1.353,0.301 0.723,0 1.424,-0.151 2.106,-0.451 0.682,-0.301 1.364,-0.643 2.046,-1.023 0.681,-0.382 1.392,-0.722 2.135,-1.023 0.742,-0.301 1.535,-0.451 2.377,-0.451 0.761,0 1.333,0.079 1.715,0.24 0.38,0.16 0.571,0.401 0.571,0.723 0,0.32 -0.131,0.58 -0.391,0.781 -0.262,0.201 -0.623,0.371 -1.083,0.512 -0.461,0.14 -0.993,0.271 -1.594,0.391 -0.602,0.12 -1.243,0.26 -1.925,0.421 -0.683,0.16 -1.384,0.361 -2.106,0.602 -0.924,0.28 -1.826,0.651 -2.707,1.113 -0.883,0.46 -1.675,1.072 -2.377,1.834 -0.702,0.762 -1.263,1.685 -1.684,2.768 -0.421,1.083 -0.632,2.407 -0.632,3.971 0,2.085 0.481,3.83 1.443,5.234 0.964,1.404 2.386,2.467 4.272,3.189 1.885,0.721 4.212,1.083 6.979,1.083 0.682,0 1.364,-0.041 2.046,-0.121 0.681,-0.081 1.373,-0.201 2.075,-0.361 0.702,-0.16 1.404,-0.371 2.106,-0.631 0.701,-0.262 1.414,-0.552 2.136,-0.873 1.483,-0.642 2.245,-1.534 2.286,-2.677 0.04,-1.143 -0.382,-2.337 -1.264,-3.58 -0.481,-0.762 -0.973,-1.334 -1.473,-1.714 -0.503,-0.382 -1.014,-0.572 -1.535,-0.572 -0.642,0 -1.344,0.181 -2.105,0.542 -0.763,0.36 -1.565,0.721 -2.407,1.082 -0.842,0.361 -1.685,0.542 -2.527,0.542 -0.481,0 -0.893,-0.051 -1.233,-0.151 -0.341,-0.1 -0.592,-0.24 -0.752,-0.421 -0.161,-0.18 -0.241,-0.39 -0.241,-0.631 0,-0.442 0.151,-0.793 0.451,-1.053 0.301,-0.261 0.702,-0.472 1.204,-0.632 0.501,-0.161 1.083,-0.301 1.745,-0.421 0.662,-0.121 1.373,-0.241 2.135,-0.361 1.043,-0.161 2.115,-0.412 3.219,-0.752 C -1.604,15.933 -0.592,15.441 0.331,14.8 1.254,14.158 1.996,13.275 2.557,12.153 3.119,11.03 3.399,9.566 3.399,7.761 3.399,4.352 2.266,1.765 0,0 m -24.605,19.192 c -0.542,-0.763 -1.224,-1.244 -2.046,-1.444 -0.823,-0.201 -1.695,-0.301 -2.617,-0.301 l -3.128,0.074 v -6.992 c 0,-0.442 0.03,-0.813 0.09,-1.113 0.06,-0.302 0.15,-0.532 0.271,-0.692 0.12,-0.161 0.28,-0.281 0.481,-0.361 0.201,-0.081 0.461,-0.121 0.783,-0.121 1.041,0 1.974,-0.081 2.797,-0.241 0.821,-0.16 1.464,-0.582 1.925,-1.263 0.461,-0.682 0.692,-1.825 0.692,-3.429 0,-1.805 -0.281,-3.089 -0.842,-3.85 -0.563,-0.763 -1.264,-1.213 -2.106,-1.354 -0.843,-0.14 -1.685,-0.21 -2.527,-0.21 -2.127,0 -3.971,0.24 -5.535,0.721 -1.564,0.482 -2.858,1.223 -3.88,2.226 -1.023,1.002 -1.786,2.266 -2.286,3.79 -0.503,1.524 -0.753,3.309 -0.753,5.355 v 7.641 h -1.503 c -1.365,0.08 -2.308,0.521 -2.829,1.323 -0.521,0.802 -0.781,2.125 -0.781,3.971 0,1.724 0.321,3.017 0.962,3.881 0.641,0.861 1.604,1.293 2.888,1.293 h 1.263 v 5.234 c 0,0.922 0.081,1.775 0.241,2.557 0.16,0.782 0.622,1.423 1.384,1.925 0.761,0.501 2.046,0.752 3.851,0.752 1.764,0 3.027,-0.27 3.789,-0.812 0.762,-0.541 1.223,-1.233 1.384,-2.076 0.16,-0.842 0.241,-1.705 0.241,-2.587 v -4.808 l 3.188,0.116 c 0.882,0 1.734,-0.081 2.557,-0.241 0.822,-0.161 1.504,-0.622 2.046,-1.383 0.542,-0.763 0.812,-2.067 0.812,-3.911 0,-1.685 -0.27,-2.909 -0.812,-3.67 M 18.191,54.608 C 13.454,63.5 -1.051,65.816 -15.048,63.7 -40.155,60.036 -57.253,43.881 -59.458,26.361 c -2.731,-20.026 8.31,-55.242 42.627,-48.965 9.44,1.704 18.484,6.415 24.014,12.76 9.797,11.444 5.018,23.305 8.004,35.658 1.734,10.22 7.085,20.658 3.004,28.794"
         style="fill:#ffffff;fill-opacity:1;fill-rule:nonzero;stroke:none"
         transform="matrix(1.3333333,0,0,-1.3333333,192.37082,134.85474)"
         clip-path="url(#clipPath10)" />
      <path
         id="path11"
         d="m 240.50219,123.70749 c -2.125,0 -3.97656,-0.24219 -5.54687,-0.71875 -1.5625,-0.48829 -2.85938,-1.23438 -3.89063,-2.23438 -1.02344,-1.00781 -1.78125,-2.27344 -2.28125,-3.79687 -0.5,-1.53125 -0.75,-3.32032 -0.75,-5.375 V 88.191861 c 0,-0.914062 0.0781,-1.765625 0.23438,-2.546874 0.15625,-0.789063 0.61328,-1.4375 1.375,-1.9375 0.76953,-0.5 2.0625,-0.75 3.875,-0.75 1.75781,0 3.01953,0.273437 3.78125,0.8125 0.76953,0.542969 1.23437,1.234375 1.39062,2.078125 0.16406,0.84375 0.25,1.710937 0.25,2.593749 v 22.609379 c 0,0.4375 0.0234,0.80859 0.0781,1.10937 0.0625,0.30469 0.15625,0.53906 0.28125,0.70313 0.125,0.15625 0.28516,0.27734 0.48438,0.35937 0.19531,0.0742 0.45703,0.10938 0.78125,0.10938 1.03906,0 1.97265,0.0859 2.79687,0.25 0.82032,0.15625 1.46094,0.57812 1.92188,1.26562 0.46875,0.67969 0.70312,1.82422 0.70312,3.4375 0,1.80469 -0.28125,3.08984 -0.84375,3.85938 -0.5625,0.76171 -1.26562,1.20703 -2.10937,1.34375 -0.84375,0.14453 -1.6875,0.21875 -2.53125,0.21875 z m -13.75,-30.265629 h 7.0625 l 8.3125,-0.296874 c 0.88281,0 1.73828,0.08593 2.5625,0.25 0.82031,0.156249 1.50391,0.617188 2.04688,1.375 0.55078,0.761718 0.82812,2.070312 0.82812,3.921874 0,1.687499 -0.27734,2.914059 -0.82812,3.671879 -0.54297,0.76172 -1.22657,1.24609 -2.04688,1.45312 -0.82422,0.19922 -1.69922,0.29688 -2.625,0.29688 l -7.65625,-0.1875 h -7.89062 c -1.36719,-0.0703 -2.3086,-0.50782 -2.82813,-1.3125 -0.52344,-0.8125 -0.78125,-2.14063 -0.78125,-3.984379 0,-1.726562 0.31641,-3.023437 0.95313,-3.890625 0.64453,-0.86328 1.60937,-1.296875 2.89062,-1.296875 z m 36.90625,30.140629 c -1.9375,0 -3.74219,-0.38282 -5.40625,-1.14063 -1.66797,-0.76953 -3.125,-1.84766 -4.375,-3.23437 -1.24219,-1.38282 -2.20312,-3 -2.89062,-4.84375 -0.67969,-1.85157 -1.01563,-3.86329 -1.01563,-6.03125 v -9.828129 c 0,-0.925781 0.0781,-1.800781 0.23438,-2.625 0.16406,-0.820312 0.6289,-1.503905 1.39062,-2.046874 0.75781,-0.539063 2.04688,-0.8125 3.85938,-0.8125 1.84375,0 3.13281,0.273437 3.875,0.8125 0.75,0.542969 1.20312,1.234374 1.35937,2.078125 0.16406,0.843749 0.25,1.730468 0.25,2.656249 v 9.765629 c 0,0.92968 0.16406,1.71484 0.5,2.35937 0.34375,0.63672 0.84766,1.125 1.51563,1.46875 0.66406,0.34375 1.4414,0.51563 2.32812,0.51563 0.88281,0 1.64453,-0.17969 2.28125,-0.54688 0.64453,-0.36328 1.14453,-0.86328 1.5,-1.5 0.36328,-0.64453 0.54688,-1.41016 0.54688,-2.29687 v -9.890629 c 0,-0.925781 0.0781,-1.800781 0.23437,-2.625 0.16406,-0.820312 0.62891,-1.492186 1.39063,-2.015625 0.76953,-0.519531 2.0625,-0.781249 3.875,-0.781249 1.84375,0 3.13281,0.273437 3.875,0.8125 0.75,0.542969 1.20312,1.234374 1.35937,2.078125 0.16406,0.843749 0.25,1.710937 0.25,2.593749 v 19.828129 c 0,0.88671 -0.0859,1.73437 -0.25,2.54687 -0.15625,0.80469 -0.62109,1.46484 -1.39062,1.98438 -0.76172,0.51953 -2.04297,0.78125 -3.84375,0.78125 -1.33594,0 -2.375,-0.15235 -3.125,-0.45313 -0.74219,-0.30078 -1.27344,-0.67969 -1.59375,-1.14062 -0.3125,-0.46875 -0.5,-0.92969 -0.5625,-1.39063 -0.0625,-0.45703 -0.0937,-0.84766 -0.0937,-1.17187 l 1.03125,0.29687 c 0,0 -0.16406,0.19531 -0.48438,0.57813 -0.32421,0.375 -0.79687,0.82031 -1.42187,1.32812 -0.625,0.5 -1.37109,0.94531 -2.23438,1.32813 -0.85546,0.37109 -1.84375,0.5625 -2.96875,0.5625 z m 25.97656,0.125 c -1.8125,0 -3.10156,-0.27344 -3.85937,-0.8125 -0.76172,-0.53907 -1.21485,-1.24219 -1.35938,-2.10938 -0.13672,-0.86328 -0.20312,-1.73828 -0.20312,-2.625 V 98.504361 c 0,-0.925781 0.0781,-1.800781 0.23437,-2.625 0.16407,-0.820312 0.62891,-1.492186 1.39063,-2.015625 0.75781,-0.519531 2.04687,-0.781249 3.85937,-0.781249 1.76953,0 3.02344,0.242188 3.76563,0.718749 0.73828,0.480469 1.1875,1.01172 1.34375,1.593751 0.16406,0.585937 0.25,1.039062 0.25,1.359374 l -0.96875,-0.359374 c 0,0 0.16015,-0.175782 0.48437,-0.531251 0.32032,-0.36328 0.79688,-0.785156 1.42188,-1.265624 0.625,-0.488281 1.36719,-0.910156 2.23437,-1.265625 0.86328,-0.363282 1.83594,-0.546875 2.92188,-0.546875 0.36328,0 0.8164,0.03125 1.35937,0.09375 0.53907,0.05469 1.11719,0.164062 1.73438,0.328125 0.625,0.156249 1.20703,0.398437 1.75,0.718749 0.53906,0.32422 0.98437,0.746095 1.32812,1.265626 0.34375,0.523437 0.51563,1.164062 0.51563,1.921874 0,2.01172 -0.4336,3.718744 -1.29688,5.124994 -0.86718,1.40625 -2,2.10938 -3.40625,2.10938 -0.76172,0 -1.30469,-0.0469 -1.625,-0.14063 -0.32422,-0.10156 -0.55859,-0.20312 -0.70312,-0.29687 -0.13672,-0.10156 -0.29688,-0.20703 -0.48438,-0.3125 -0.17969,-0.10156 -0.50781,-0.15625 -0.98437,-0.15625 -0.60547,0 -1.15625,0.0742 -1.65625,0.21875 -0.5,0.13672 -0.94531,0.34375 -1.32813,0.625 -0.38672,0.28125 -0.67968,0.61719 -0.875,1 -0.19922,0.38672 -0.29687,0.79687 -0.29687,1.23437 v 11.76563 c 0,0.875 -0.0859,1.73437 -0.25,2.57812 -0.15625,0.84375 -0.6211,1.53125 -1.39063,2.0625 -0.76172,0.51953 -2.0625,0.78125 -3.90625,0.78125 z m 26.33594,0 c -1.80469,0 -3.08984,-0.27344 -3.85937,-0.8125 -0.76172,-0.53907 -1.21485,-1.23438 -1.35938,-2.07813 -0.13672,-0.84375 -0.20312,-1.70703 -0.20312,-2.59375 V 98.566861 c 0,-0.882812 0.0781,-1.738281 0.23437,-2.5625 0.16406,-0.820312 0.62891,-1.503905 1.39063,-2.046874 0.75781,-0.539063 2.04687,-0.8125 3.85937,-0.8125 1.8125,0 3.08594,0.273437 3.82813,0.8125 0.73828,0.542969 1.1875,1.234374 1.34374,2.078125 0.16407,0.843749 0.25,1.730468 0.25,2.656249 v 19.593749 c 0,0.875 -0.0859,1.73438 -0.25,2.57813 -0.15624,0.84375 -0.60546,1.53125 -1.34374,2.0625 -0.74219,0.51953 -2.03907,0.78125 -3.89063,0.78125 z m 0,-33.515629 c -1.80469,0 -3.08984,-0.26953 -3.85937,-0.8125 -0.76172,-0.539062 -1.21485,-1.234374 -1.35938,-2.078125 -0.13672,-0.851561 -0.20312,-1.718749 -0.20312,-2.593749 0,-0.925781 0.0781,-1.800781 0.23437,-2.625 0.16406,-0.820312 0.62891,-1.492188 1.39063,-2.015625 0.75781,-0.53125 2.04687,-0.796875 3.85937,-0.796875 1.8125,0 3.08594,0.277344 3.82813,0.828125 0.73828,0.542968 1.1875,1.234375 1.34374,2.078124 0.16407,0.843751 0.25,1.703126 0.25,2.578126 0,0.886718 -0.0859,1.75 -0.25,2.59375 -0.15624,0.843749 -0.60546,1.531249 -1.34374,2.0625 -0.74219,0.523437 -2.03907,0.781249 -3.89063,0.781249 z m 20.80469,34.046879 c -1.125,0 -2.38282,-0.13282 -3.76563,-0.39063 -1.38672,-0.26172 -2.73437,-0.64453 -4.04687,-1.14062 -1.30469,-0.5 -2.375,-1.08594 -3.21875,-1.76563 -0.84375,-0.6875 -1.26563,-1.47266 -1.26563,-2.35937 0,-0.40625 0.0859,-0.85938 0.26563,-1.35938 0.1875,-0.5 0.4375,-1.05078 0.75,-1.65625 0.32031,-0.60156 0.72656,-1.25 1.21875,-1.9375 0.28125,-0.39453 0.60937,-0.69141 0.98437,-0.89062 0.38281,-0.20704 0.83594,-0.3125 1.35938,-0.3125 0.72656,0 1.42968,0.15234 2.10937,0.45312 0.6875,0.30469 1.36719,0.64844 2.04688,1.03125 0.6875,0.375 1.39843,0.71484 2.14062,1.01563 0.75,0.30468 1.54688,0.45312 2.39063,0.45312 0.75781,0 1.32812,-0.0781 1.70312,-0.23437 0.38281,-0.16407 0.57813,-0.40625 0.57813,-0.71875 0,-0.32032 -0.13282,-0.58204 -0.39063,-0.78125 -0.26172,-0.20704 -0.625,-0.37891 -1.09375,-0.51563 -0.46094,-0.14453 -0.99219,-0.27344 -1.59375,-0.39062 -0.59375,-0.125 -1.23437,-0.26563 -1.92187,-0.42188 -0.6875,-0.16406 -1.39063,-0.36719 -2.10938,-0.60937 -0.92969,-0.28125 -1.83594,-0.64844 -2.71875,-1.10938 -0.875,-0.46875 -1.66797,-1.08203 -2.375,-1.84375 -0.71094,-0.75781 -1.27734,-1.67969 -1.70312,-2.76562 -0.41797,-1.09375 -0.625,-2.42188 -0.625,-3.98438 0,-2.093748 0.48437,-3.843748 1.45312,-5.249999 0.96875,-1.406249 2.39453,-2.468749 4.28125,-3.1875 1.88281,-0.726562 4.21094,-1.093749 6.98438,-1.093749 0.6875,0 1.36718,0.04297 2.04687,0.125 0.6875,0.08593 1.37891,0.210937 2.07813,0.375 0.70703,0.156249 1.41015,0.367187 2.10937,0.625 0.70703,0.261719 1.42578,0.554687 2.15625,0.875 1.48828,0.636719 2.25,1.527344 2.28125,2.671875 0.0391,1.148437 -0.38281,2.343749 -1.26562,3.593753 -0.48047,0.76172 -0.96875,1.33593 -1.46875,1.71875 -0.5,0.375 -1.01563,0.5625 -1.54688,0.5625 -0.63672,0 -1.33984,-0.17578 -2.10937,-0.53125 -0.76172,-0.36328 -1.5625,-0.72266 -2.40625,-1.07813 -0.84375,-0.36328 -1.6875,-0.54687 -2.53125,-0.54687 -0.48047,0 -0.89063,0.0547 -1.23438,0.15625 -0.34375,0.0937 -0.60156,0.23437 -0.76562,0.42187 -0.15625,0.17969 -0.23438,0.38672 -0.23438,0.625 0,0.4375 0.14844,0.78906 0.45313,1.04688 0.30078,0.26172 0.70312,0.47656 1.20312,0.64062 0.50781,0.15625 1.09375,0.29688 1.75,0.42188 0.66406,0.11718 1.37891,0.23437 2.14063,0.35937 1.05078,0.15625 2.1289,0.40625 3.23437,0.75 1.10156,0.34375 2.11328,0.83985 3.03125,1.48438 0.92578,0.63671 1.67188,1.51562 2.23438,2.64062 0.5625,1.125 0.84375,2.59375 0.84375,4.40625 0,3.41797 -1.13672,6.01172 -3.40625,7.78125 -2.27344,1.75781 -5.61719,2.64063 -10.03125,2.64063 z m 21.45312,-0.53125 c -1.80469,0 -3.08984,-0.27344 -3.85937,-0.8125 -0.76172,-0.53907 -1.21485,-1.23438 -1.35938,-2.07813 -0.13672,-0.84375 -0.20312,-1.70703 -0.20312,-2.59375 V 98.504361 c 0,-0.925781 0.0781,-1.800781 0.23437,-2.625 0.16406,-0.820312 0.62891,-1.492186 1.39063,-2.015625 0.75781,-0.519531 2.06641,-0.781249 3.92187,-0.781249 1.8125,0 3.12891,0.355469 3.95312,1.0625 0.82032,0.699218 1.23438,1.828125 1.23438,3.390625 l -1.03124,-0.296876 c 0,0 0.14842,-0.207031 0.45312,-0.625 0.30078,-0.42578 0.74218,-0.921875 1.32812,-1.484375 0.58204,-0.5625 1.29688,-1.050781 2.14062,-1.468749 0.84375,-0.425781 1.8047,-0.640625 2.89063,-0.640625 1.25,0 2.39453,0.164062 3.43751,0.484374 1.03905,0.324219 1.99218,0.820314 2.85937,1.484375 0.86328,0.656251 1.61719,1.468751 2.26563,2.4375 0.43749,-0.531249 1.03514,-1.132812 1.79686,-1.8125 0.76954,-0.6875 1.68751,-1.289061 2.75,-1.8125 1.06251,-0.519531 2.25782,-0.781249 3.59375,-0.781249 2.36329,0 4.37891,0.605469 6.04688,1.8125 1.67579,1.199218 2.94532,2.945312 3.81251,5.234373 0.86328,2.29297 1.29686,5.07031 1.29686,8.32813 v 9.82812 c 0,0.88672 -0.0859,1.75 -0.25,2.59375 -0.15625,0.84375 -0.62109,1.53906 -1.39062,2.07813 -0.76172,0.53906 -2.0625,0.8125 -3.90624,0.8125 -1.81251,0 -3.10548,-0.28516 -3.875,-0.84375 -0.76172,-0.5625 -1.21486,-1.26563 -1.35939,-2.10938 -0.13671,-0.84375 -0.20312,-1.70703 -0.20312,-2.59375 v -9.82812 c 0,-0.96875 -0.10933,-1.75782 -0.32812,-2.375 -0.21876,-0.625 -0.54297,-1.09766 -0.96876,-1.42188 -0.41796,-0.32031 -0.94921,-0.48437 -1.59375,-0.48437 -0.67968,0 -1.23046,0.14062 -1.65625,0.42187 -0.41796,0.28125 -0.71875,0.73438 -0.90624,1.35938 -0.17969,0.625 -0.26563,1.48047 -0.26563,2.5625 v 9.82812 c 0,0.88672 -0.0859,1.75 -0.25,2.59375 -0.15625,0.84375 -0.62109,1.53906 -1.39062,2.07813 -0.76172,0.53906 -2.06251,0.8125 -3.90626,0.8125 -1.81249,0 -3.10156,-0.28516 -3.85937,-0.84375 -0.76172,-0.5625 -1.21484,-1.26563 -1.35937,-2.10938 -0.13672,-0.84375 -0.20312,-1.70703 -0.20312,-2.59375 v -9.82812 c 0,-0.96875 -0.10547,-1.76953 -0.31251,-2.40625 -0.19921,-0.64453 -0.51172,-1.11719 -0.93749,-1.42188 -0.41798,-0.30078 -0.96486,-0.45312 -1.64063,-0.45312 -0.81251,0 -1.42188,0.20312 -1.82813,0.60937 -0.39843,0.39844 -0.66796,0.91797 -0.8125,1.5625 -0.13672,0.64844 -0.20313,1.35156 -0.20313,2.10938 v 9.95312 c 0,0.875 -0.0859,1.73438 -0.25,2.57813 -0.15624,0.84375 -0.61719,1.53125 -1.375,2.0625 -0.76171,0.51953 -2.07031,0.78125 -3.92187,0.78125 z m 57.44922,0.53125 c -1.84375,0 -3.71484,-0.3711 -5.60938,-1.10938 -1.88672,-0.73828 -3.625,-1.80078 -5.21874,-3.1875 -1.58594,-1.39453 -2.85156,-3.06641 -3.79688,-5.01562 -0.9375,-1.94532 -1.40624,-4.125 -1.40624,-6.53125 0,-2.20703 0.42186,-4.27344 1.26561,-6.20313 0.84376,-1.9375 2,-3.632811 3.46876,-5.093748 1.46875,-1.468751 3.15624,-2.625 5.06249,-3.468751 1.90626,-0.843749 3.94532,-1.265625 6.125,-1.265625 2.96875,0 5.65626,0.714844 8.06251,2.140625 2.41405,1.41797 4.34765,3.335938 5.79687,5.749999 1.44532,2.40625 2.17188,5.10156 2.17188,8.07813 0,2.53125 -0.48438,4.78125 -1.45312,6.75 -0.96095,1.96875 -2.22658,3.63671 -3.79688,5 -1.56251,1.36718 -3.28126,2.39843 -5.15626,3.09375 -1.86718,0.70703 -3.70312,1.0625 -5.51562,1.0625 z m -0.10934,-11.03125 c 0.59375,0 1.28126,-0.14454 2.06251,-0.4375 0.78905,-0.30079 1.47656,-0.8125 2.06249,-1.53125 0.58203,-0.72657 0.875,-1.71875 0.875,-2.96875 0,-1 -0.21484,-1.85938 -0.64062,-2.57813 -0.41796,-0.72656 -1.01172,-1.28906 -1.78124,-1.6875 -0.76172,-0.40625 -1.64063,-0.60937 -2.64063,-0.60937 -0.88672,0 -1.69532,0.21484 -2.42188,0.64062 -0.71875,0.41797 -1.30469,0.9961 -1.75,1.73438 -0.43749,0.74218 -0.65625,1.59375 -0.65625,2.5625 0,1.21093 0.28125,2.17968 0.84376,2.90625 0.56249,0.71875 1.22265,1.23046 1.98437,1.53125 0.76952,0.29296 1.45703,0.4375 2.06249,0.4375 z"
         style="fill:#ffffff;fill-opacity:1;fill-rule:nonzero;stroke:none;stroke-width:1.33333"
         aria-label="turismo" />
      <path
         id="path12"
         d="m 228.64281,152.99656 c -0.75,0 -1.39844,-0.14844 -1.9375,-0.45313 -0.54297,-0.3125 -0.93359,-0.78906 -1.17187,-1.4375 -0.23047,-0.64453 -0.25,-1.4375 -0.0625,-2.375 l 2.21875,-10.57813 c 0.20703,-1.05078 0.48828,-1.87499 0.84375,-2.46874 0.35156,-0.59375 0.85156,-1.03516 1.5,-1.32813 0.64453,-0.30078 1.51562,-0.45312 2.60937,-0.45312 h 0.51563 c 0.84375,0 1.53515,0.16406 2.07812,0.48437 0.55078,0.32422 0.92578,0.80859 1.125,1.45313 0.20703,0.63671 0.20703,1.40625 0,2.31249 l -0.375,1.78126 -3.42187,-0.0469 0.46875,-2.125 c 0.0508,-0.26953 0.0351,-0.48828 -0.0469,-0.65625 -0.0859,-0.17578 -0.23047,-0.26562 -0.4375,-0.26562 h -0.39062 c -0.26172,0 -0.46485,0.0742 -0.60938,0.21875 -0.14844,0.14843 -0.25,0.38281 -0.3125,0.70312 l -2.375,11.35938 c -0.0547,0.29296 -0.0312,0.52343 0.0625,0.6875 0.0937,0.16796 0.25781,0.25 0.5,0.25 h 0.35938 c 0.23828,0 0.42968,-0.0703 0.57812,-0.21875 0.14453,-0.14454 0.25391,-0.38282 0.32813,-0.71875 l 0.4375,-2.1875 h 3.35937 l -0.3125,1.79687 c -0.17969,1.04297 -0.44922,1.87109 -0.8125,2.48438 -0.35547,0.60546 -0.86719,1.05468 -1.53125,1.34375 -0.65625,0.29296 -1.54687,0.4375 -2.67187,0.4375 z m 13.14453,-19.09375 h 4.82813 l -1.71875,19.09375 h -3.32813 l 1.25,-11 0.9375,-4.32813 h -0.67187 l -0.92188,4.32813 -3.34375,11 h -3.34375 z m -2.03125,13.46875 h 3.21875 l -0.60937,2.98437 h -3.23438 z m 13.19922,-0.98438 0.51562,-2.46875 h 0.32813 c 0.25781,0 0.45313,-0.0703 0.57813,-0.21875 0.13281,-0.15625 0.22656,-0.39453 0.28124,-0.71875 l 1.10938,-5.21875 c 0.0703,-0.28906 0.0547,-0.51562 -0.0469,-0.67188 -0.0937,-0.16406 -0.23438,-0.24999 -0.42188,-0.24999 h -1.59374 l 0.60938,-2.9375 h 1.70312 c 0.625,0 1.21094,0.12109 1.76562,0.35937 0.5625,0.24219 0.99219,0.67969 1.29688,1.3125 0.30078,0.63672 0.34375,1.49609 0.125,2.57812 l -0.95312,4.43751 c -0.26172,1.24218 -0.51172,2.11718 -0.75,2.625 -0.23047,0.51171 -0.60938,0.88281 -1.14063,1.10937 -0.53125,0.21875 -1.36719,0.32813 -2.5,0.32813 l -0.67187,-0.15625 z m 0,0 3.09375,-0.35937 0.5,6.96875 h -3.39063 z m -1.5,-12.48437 h 3.45312 l -4.04687,19.09375 h -3.45313 z m 18.625,19.09375 c -0.96875,0 -1.71875,-0.11719 -2.25,-0.35938 -0.53125,-0.23828 -0.875,-0.64062 -1.03125,-1.20312 -0.14844,-0.57032 -0.0937,-1.35938 0.15625,-2.35938 l 0.8125,-3.6875 c 0.19531,-0.83203 0.45703,-1.5 0.78125,-2 0.32031,-0.50781 0.78906,-0.89062 1.40625,-1.14062 0.61328,-0.25 1.41016,-0.35938 2.39062,-0.32813 l 0.71875,-0.0156 -0.625,2.74999 h -0.48437 c -0.1875,0 -0.35547,0.0898 -0.5,0.26563 -0.14844,0.16797 -0.25781,0.40234 -0.32812,0.70312 l -0.76563,3.53125 c -0.0937,0.32422 -0.0937,0.5625 0,0.71875 0.10156,0.15625 0.25,0.23438 0.4375,0.23438 h 0.39063 c 0.16406,0 0.32812,-0.0781 0.48437,-0.23438 0.16406,-0.16406 0.28516,-0.40625 0.35937,-0.71875 l 1.59375,-7.35937 h 3.51563 l -1.625,7.28125 c -0.21875,0.92969 -0.5,1.67187 -0.84375,2.23437 -0.34375,0.55469 -0.83984,0.97657 -1.48438,1.26563 -0.64843,0.28125 -1.49609,0.42187 -2.54687,0.42187 z m 6.59375,-11.17188 h 1.70312 l -0.60937,3.0625 h -1.76563 z m -6.9375,-5.09375 0.54687,-2.82812 h 8.4375 l -0.625,3.0625 h -4.53125 l 0.40625,5.0625 -0.5625,2.625 h -2.51562 z m 18.59375,-2.82812 h 3.48437 l -4.03125,19.09375 h -3.48437 z m 2.04687,10.01562 h 0.29688 c 0.22656,0 0.41406,-0.0703 0.5625,-0.21875 0.14453,-0.15625 0.24219,-0.39453 0.29687,-0.71875 l 1.10938,-5.21875 c 0.0703,-0.26953 0.0547,-0.48828 -0.0469,-0.65625 -0.10547,-0.17578 -0.26172,-0.26562 -0.46875,-0.26562 h -1.54687 l 0.60937,-2.9375 h 1.6875 c 0.65625,0 1.25782,0.12109 1.8125,0.35937 0.5625,0.24219 0.97657,0.67969 1.25,1.3125 0.28125,0.63672 0.31641,1.49609 0.10938,2.57812 l -1.0625,5.01563 c -0.16797,0.875 -0.39844,1.57422 -0.6875,2.09375 -0.29297,0.51172 -0.75782,0.90625 -1.39063,1.1875 -0.625,0.27344 -1.49609,0.40625 -2.60937,0.40625 h -0.54688 z m 10.78516,-8.98437 h 3.51562 l -3.65625,17.20312 h -3.46875 z m -5.54688,15.125 h 8.29688 l -0.625,2.9375 h -8.34375 z m 3.35938,-16.15625 h 8.34375 l -0.67188,2.9375 h -8.29687 z m 10.92187,19.09375 c -0.75,0 -1.39843,-0.14844 -1.9375,-0.45313 -0.54296,-0.3125 -0.93359,-0.78906 -1.17187,-1.4375 -0.23047,-0.64453 -0.25,-1.4375 -0.0625,-2.375 l 2.21875,-10.57813 c 0.20703,-1.05078 0.48828,-1.87499 0.84375,-2.46874 0.35156,-0.59375 0.85156,-1.03516 1.5,-1.32813 0.64453,-0.30078 1.51562,-0.45312 2.60937,-0.45312 h 0.51563 c 0.84375,0 1.53515,0.16406 2.07812,0.48437 0.55078,0.32422 0.92578,0.80859 1.125,1.45313 0.20703,0.63671 0.20703,1.40625 0,2.31249 l -0.375,1.78126 -3.42187,-0.0469 0.46875,-2.125 c 0.0508,-0.26953 0.0352,-0.48828 -0.0469,-0.65625 -0.0859,-0.17578 -0.23047,-0.26562 -0.4375,-0.26562 h -0.39063 c -0.26172,0 -0.46484,0.0742 -0.60937,0.21875 -0.14844,0.14843 -0.25,0.38281 -0.3125,0.70312 l -2.375,11.35938 c -0.0547,0.29296 -0.0313,0.52343 0.0625,0.6875 0.0937,0.16796 0.25781,0.25 0.5,0.25 h 0.35938 c 0.23828,0 0.42968,-0.0703 0.57812,-0.21875 0.14453,-0.14454 0.25391,-0.38282 0.32813,-0.71875 l 0.4375,-2.1875 h 3.35937 l -0.3125,1.79687 c -0.17969,1.04297 -0.44922,1.87109 -0.8125,2.48438 -0.35547,0.60546 -0.86719,1.05468 -1.53125,1.34375 -0.65625,0.29296 -1.54687,0.4375 -2.67187,0.4375 z m 12.0625,-19.09375 h 3.45313 l -1.39063,5.28125 -2.45312,4.51562 h 0.6875 l 2.29687,-4.17188 3,-5.62499 h 3.76563 l -9.46875,15.48437 -0.70313,3.60938 h -3.21875 z m 1.625,11.6875 1.90625,-2.8125 h 0.98438 l 0.875,10.21875 h -3.25 z m 16.42188,7.40625 c -0.89844,0 -1.60938,-0.17188 -2.14063,-0.51563 -0.52343,-0.34375 -0.87109,-0.83594 -1.04687,-1.48437 -0.16797,-0.64454 -0.15235,-1.39844 0.0469,-2.26563 l 3.10937,-14.82812 h 3.48437 l -3.21875,15.21875 c -0.0742,0.29296 -0.0586,0.52343 0.0469,0.6875 0.10156,0.16796 0.25,0.25 0.4375,0.25 h 0.5 c 0.1875,0 0.35938,-0.082 0.51563,-0.25 0.16406,-0.17579 0.28515,-0.40625 0.35937,-0.6875 l 3.25,-15.21875 h 3.48438 l -3.17188,14.82812 c -0.23047,1.04297 -0.51562,1.86719 -0.85937,2.46875 -0.34375,0.59375 -0.84375,1.04297 -1.5,1.34375 -0.64844,0.30469 -1.52344,0.45313 -2.625,0.45313 z m 12.34375,-19.09375 h 3.48437 l -4.03125,19.09375 h -3.48437 z m 2.04687,10.01562 h 0.29688 c 0.22656,0 0.41406,-0.0703 0.5625,-0.21875 0.14453,-0.15625 0.24219,-0.39453 0.29687,-0.71875 l 1.10937,-5.21875 c 0.0703,-0.26953 0.0547,-0.48828 -0.0469,-0.65625 -0.10547,-0.17578 -0.26172,-0.26562 -0.46876,-0.26562 h -1.54687 l 0.60938,-2.9375 h 1.68749 c 0.65625,0 1.25781,0.12109 1.81251,0.35937 0.56249,0.24219 0.97656,0.67969 1.25,1.3125 0.28125,0.63672 0.3164,1.49609 0.10933,2.57812 l -1.06249,5.01563 c -0.16798,0.875 -0.39844,1.57422 -0.68751,2.09375 -0.29297,0.51172 -0.75781,0.90625 -1.39063,1.1875 -0.625,0.27344 -1.49609,0.40625 -2.60937,0.40625 l 72.78185,-9.31158 z m 17.07422,2.46875 0.51563,-2.46875 h 0.32812 c 0.25781,0 0.45313,-0.0703 0.57813,-0.21875 0.1328,-0.15625 0.22656,-0.39453 0.28124,-0.71875 l 1.10938,-5.21875 c 0.0703,-0.28906 0.0547,-0.51562 -0.0468,-0.67188 -0.0937,-0.16406 -0.23438,-0.24999 -0.42188,-0.24999 H 372.221 l 0.60937,-2.9375 h 1.70312 c 0.625,0 1.21095,0.12109 1.76563,0.35937 0.56251,0.24219 0.99219,0.67969 1.29688,1.3125 0.30077,0.63672 0.34375,1.49609 0.12493,2.57812 l -0.95312,4.43751 c -0.26172,1.24218 -0.51172,2.11718 -0.75,2.625 -0.23048,0.51171 -0.60938,0.88281 -1.14062,1.10937 -0.53126,0.21875 -1.36719,0.32813 -2.5,0.32813 l -0.67188,-0.15625 z m 0,0 3.09375,-0.35937 0.5,6.96875 h -3.39063 z m -1.5,-12.48437 h 3.45312 l -4.04686,19.09375 h -3.45314 z m 12.10938,0 h 7.51562 l -0.59374,2.9375 h -4.98438 l 1.10938,-0.90625 -3.07814,15.01562 -0.71874,-0.89062 h 4.82812 l -0.5625,2.9375 h -7.46874 z m 1.23437,8.07812 h 3.75 l -0.56249,2.9375 h -3.79688 z m 9.15235,-8.07812 h 3.07812 l 0.6875,6.59375 0.20312,6.71875 h 0.625 l -0.23437,-6.40625 1.25,-6.90625 h 3.60937 l -4.10937,19.09375 h -3.125 l -0.76563,-5.67188 -0.18749,-6.3125 h -0.60937 l 0.20312,6 -1.01563,5.98438 h -3.64063 z m 13.79297,0.95312 h 3.48437 l -3.79688,18.14063 h -3.48437 z m -2.73439,-0.95312 h 9.18751 l -0.60937,2.9375 h -9.17188 z m 12.44142,0 h 4.82812 l -1.71875,19.09375 h -3.32812 l 1.25,-11 0.93749,-4.32813 h -0.67186 l -0.92188,4.32813 -3.34375,11 h -3.34376 z m -2.03126,13.46875 h 3.21875 l -0.60937,2.98437 h -3.23438 z m 11.44142,-13.46875 h 3.48437 l -3.64063,17.04687 -0.6875,-0.89062 h 5.15625 l -0.64063,2.9375 h -7.71874 z"
         style="fill:#ffffff;fill-opacity:1;fill-rule:nonzero;stroke:none;stroke-width:1.33333"
         aria-label="car &amp; pick up RENTAL" />
    </g>
  </g>
</svg>
